<svg width="73" height="70" viewBox="0 0 73 70" fill="none" xmlns="http://www.w3.org/2000/svg">
<g id="Group 38">
<path id="Vector" d="M62.4885 17.8619L17.1092 1.01547C17.1092 1.01547 15.9199 3.08444 16.0202 5.64226C16.1109 7.99902 18.3305 12.1469 18.3305 12.1469L19.1614 22.1497L15.351 43.3987L13.9453 49.4334C13.9453 49.4334 14.6964 54.5269 27.3135 59.0816C39.9306 63.6363 43.6666 59.9883 43.6666 59.9883L45.3905 56.4041L56.0746 36.8928L67.3915 26.9758C67.3915 26.9758 69.3115 26.4256 71.0198 24.3929C72.2104 22.9751 72.6779 20.5409 72.5851 20.8095C72.4924 21.0782 62.4885 17.8619 62.4885 17.8619Z" fill="#E27F13"/>
<path id="Vector_2" d="M37.1452 33.2314C47.3481 36.9843 52.5127 38.105 56.268 37.0204C59.0938 36.2045 60.8384 34.7543 63.2864 32.6749C66.6773 29.797 67.5538 26.9644 67.5538 26.9644C67.5538 26.9644 57.4692 28.4019 40.6881 22.0884C24.215 15.8977 16.7365 8.64285 16.7365 8.64285C16.7365 8.64285 16.1564 12.9421 16.5943 16.0284C17.1078 19.5837 19.2763 22.5046 19.2763 22.5046C19.2763 22.5046 23.3502 28.1585 37.1452 33.2314ZM19.4193 27.8201C20.3027 28.569 21.2334 29.3117 21.2334 29.3117L16.3652 48.3196C16.3652 48.3196 13.9855 46.4031 14.0164 45.2987C14.0317 44.6651 15.3031 38.2333 16.4197 33.0354C17.0186 30.2536 17.3479 28.3506 17.5957 27.371C17.862 26.3051 18.5891 27.1137 19.4193 27.8201ZM29.3879 34.347C26.1231 32.6688 23.602 31.0964 23.602 31.0964C23.5203 31.4968 18.5947 49.7868 18.5947 49.7868C18.5947 49.7868 19.6221 51.1337 23.1878 52.9554L29.3879 34.347ZM38.2219 37.8731C35.6284 37.0995 32.8576 35.8901 31.9233 35.518L25.4452 54.0144C26.4091 54.4321 27.4841 54.855 28.7042 55.2838C29.7533 55.6509 30.7599 55.9446 31.7436 56.2067L38.2219 37.8731ZM50.338 40.899C48.3997 44.9403 44.2301 53.7073 42.5256 57.3334C44.6719 57.3064 45.5543 57.2066 46.1446 56.3158C46.7349 55.425 53.561 42.1089 53.8753 41.3625C54.0832 40.8914 53.8906 40.7289 52.4821 40.8131C51.5866 40.8849 51.1647 40.8953 50.338 40.899ZM47.8032 40.4139C45.9505 40.082 43.5448 39.5506 40.7518 38.798L34.1794 56.7491C36.4995 57.1683 38.5586 57.2957 40.2865 57.2688C42.2045 53.0574 46.3436 43.7565 47.8032 40.4139Z" fill="#F5B03E"/>
</g>
</svg>
