<svg width="63" height="60" viewBox="0 0 63 60" fill="none" xmlns="http://www.w3.org/2000/svg">
<g id="Group 37">
<path id="Vector" d="M54.0012 15.161L14.7094 0.574419C14.7094 0.574419 13.6796 2.36585 13.7665 4.58054C13.845 6.62115 15.7669 10.2126 15.7669 10.2126L16.4863 18.8736L13.187 37.2721L11.9699 42.4973C11.9699 42.4973 12.6203 46.9075 23.5448 50.8512C34.4694 54.7949 37.7042 51.6363 37.7042 51.6363L39.1969 48.5329L48.4478 31.639L58.2465 23.0523C58.2465 23.0523 59.9089 22.5759 61.3881 20.8158C62.419 19.5882 62.8238 17.4806 62.7434 17.7132C62.6631 17.9458 54.0012 15.161 54.0012 15.161Z" fill="#E27F13"/>
<path id="Vector_2" d="M32.0576 28.4695C40.8919 31.7189 45.3637 32.6893 48.6152 31.7502C51.0619 31.0437 52.5725 29.7881 54.6921 27.9876C57.6281 25.4958 58.387 23.0431 58.387 23.0431C58.387 23.0431 49.6552 24.2878 35.1252 18.8212C20.862 13.461 14.3867 7.17939 14.3867 7.17939C14.3867 7.17939 13.8844 10.9019 14.2636 13.5742C14.7082 16.6525 16.5858 19.1816 16.5858 19.1816C16.5858 19.1816 20.1132 24.0771 32.0576 28.4695ZM16.7096 23.7841C17.4745 24.4325 18.2803 25.0756 18.2803 25.0756L14.0652 41.5336C14.0652 41.5336 12.0047 39.8742 12.0315 38.918C12.0447 38.3694 13.1455 32.8004 14.1124 28.2998C14.6309 25.8912 14.916 24.2434 15.1306 23.3952C15.3612 22.4723 15.9908 23.1725 16.7096 23.7841ZM25.3409 29.4355C22.5141 27.9824 20.3312 26.6208 20.3312 26.6208C20.2605 26.9676 15.9956 42.804 15.9956 42.804C15.9956 42.804 16.8852 43.9703 19.9725 45.5476L25.3409 29.4355ZM32.9899 32.4885C30.7443 31.8187 28.3452 30.7715 27.5362 30.4493L21.9272 46.4645C22.7617 46.8261 23.6926 47.1924 24.7489 47.5636C25.6573 47.8815 26.5289 48.1358 27.3806 48.3627L32.9899 32.4885ZM43.4807 35.1085C41.8024 38.6076 38.1921 46.1986 36.7162 49.3382C38.5746 49.3149 39.3387 49.2285 39.8498 48.4572C40.3609 47.6859 46.2713 36.1561 46.5434 35.5098C46.7235 35.1019 46.5567 34.9612 45.3371 35.0341C44.5618 35.0963 44.1965 35.1053 43.4807 35.1085ZM41.2859 34.6884C39.6817 34.4011 37.5987 33.9409 35.1804 33.2893L29.4897 48.8323C31.4986 49.1953 33.2814 49.3057 34.7776 49.2823C36.4382 45.6359 40.0221 37.5827 41.2859 34.6884Z" fill="#F5B03E"/>
</g>
</svg>
