<svg width="46" height="56" viewBox="0 0 46 56" fill="none" xmlns="http://www.w3.org/2000/svg">
<g id="Group 54">
<path id="Vector" opacity="0.15" d="M3.42635 43.4679C3.23618 43.8645 4.05167 44.7234 5.69343 45.8555C7.3352 46.9876 9.66874 48.3003 12.1807 49.5047C14.6927 50.7091 17.1773 51.7067 19.088 52.2779C20.9987 52.8491 22.179 52.9471 22.3692 52.5505C22.5593 52.1539 21.7438 51.295 20.1021 50.1629C18.4603 49.0308 16.1268 47.7181 13.6148 46.5137C11.1028 45.3093 8.6182 44.3117 6.7075 43.7405C4.79679 43.1693 3.61653 43.0713 3.42635 43.4679Z" fill="#45413C"/>
<path id="Vector_2" d="M26.3827 37.7863L12.4249 31.0938C12.222 30.9979 12.0574 30.8361 11.9581 30.6349C11.8587 30.4336 11.8302 30.2047 11.8774 29.9852L12.7054 25.9311C12.7361 25.7817 12.8004 25.6412 12.8935 25.5203C12.9865 25.3994 13.1058 25.3012 13.2424 25.2332C13.3789 25.1652 13.5291 25.1292 13.6817 25.1278C13.8342 25.1264 13.9851 25.1597 14.1229 25.2252L29.8953 32.7877C30.0326 32.8541 30.1531 32.9509 30.2475 33.0707C30.3419 33.1905 30.4079 33.3302 30.4404 33.4793C30.4728 33.6283 30.471 33.7828 30.435 33.931C30.399 34.0793 30.3297 34.2174 30.2325 34.3349L27.5899 37.519C27.4483 37.6932 27.252 37.8144 27.0329 37.8629C26.8137 37.9114 26.5846 37.8844 26.3827 37.7863Z" fill="#F3CB60"/>
<path id="Vector_3" d="M12.4396 27.2015L29.3884 35.3281L30.2125 34.3254C30.3098 34.2078 30.379 34.0697 30.415 33.9215C30.4511 33.7732 30.4529 33.6188 30.4204 33.4697C30.3879 33.3206 30.322 33.1809 30.2276 33.0611C30.1331 32.9413 30.0127 32.8445 29.8753 32.7781L14.1229 25.2252C13.9851 25.1597 13.8342 25.1264 13.6817 25.1278C13.5291 25.1292 13.3789 25.1652 13.2424 25.2332C13.1058 25.3012 12.9865 25.3994 12.8935 25.5203C12.8004 25.6412 12.7361 25.7817 12.7054 25.9311L12.4396 27.2015Z" fill="#F7E5C6"/>
<path id="Vector_4" d="M26.3827 37.7863L12.4249 31.0938C12.222 30.9978 12.0574 30.8361 11.9581 30.6349C11.8587 30.4336 11.8302 30.2047 11.8774 29.9852L12.7054 25.9311C12.7361 25.7817 12.8004 25.6412 12.8935 25.5203C12.9865 25.3994 13.1058 25.3012 13.2424 25.2332C13.3789 25.1652 13.5291 25.1292 13.6817 25.1278C13.8342 25.1264 13.9851 25.1597 14.1229 25.2252L29.8953 32.7877C30.0326 32.8541 30.1531 32.9509 30.2475 33.0707C30.3419 33.1905 30.4079 33.3302 30.4404 33.4793C30.4728 33.6283 30.471 33.7828 30.435 33.931C30.399 34.0793 30.3297 34.2174 30.2325 34.3349L27.5899 37.519C27.4483 37.6932 27.252 37.8144 27.0329 37.8629C26.8137 37.9114 26.5846 37.8844 26.3827 37.7863Z" stroke="#45413C" stroke-linecap="round" stroke-linejoin="round"/>
<path id="Vector_5" d="M15.0413 49.037L10.7542 46.9814C10.0961 46.667 9.57459 46.1241 9.28692 45.4538C8.99925 44.7835 8.96499 44.0315 9.19053 43.3379L13.0729 31.4047L25.7347 37.4757L18.8613 47.9748C18.4617 48.585 17.8539 49.0291 17.1512 49.2245C16.4484 49.4199 15.6986 49.3533 15.0413 49.037Z" fill="#F3CB60"/>
<path id="Vector_6" d="M24.3505 39.5954L25.7347 37.4757L13.0729 31.4047L12.2869 33.8112L24.3505 39.5954Z" fill="#DEBB7E"/>
<path id="Vector_7" d="M15.0413 49.037L10.7542 46.9814C10.0961 46.667 9.57459 46.1241 9.28692 45.4538C8.99925 44.7835 8.96499 44.0315 9.19053 43.3379L13.0729 31.4047L25.7347 37.4757L18.8613 47.9748C18.4617 48.585 17.8539 49.0291 17.1512 49.2245C16.4484 49.4199 15.6986 49.3533 15.0413 49.037Z" stroke="#45413C" stroke-linecap="round" stroke-linejoin="round"/>
<path id="Vector_8" d="M35.595 23.6878C36.1599 23.3409 36.6134 22.8391 36.9014 22.2419C37.1008 21.8261 37.2161 21.3749 37.2408 20.9144C37.2656 20.4538 37.1991 19.9929 37.0454 19.5581C36.8916 19.1233 36.6536 18.7231 36.3448 18.3804C36.0361 18.0378 35.6628 17.7594 35.2463 17.5613L34.1197 17.0212C34.6592 16.8042 35.1239 16.4349 35.4572 15.9584C35.7904 15.4819 35.9778 14.9187 35.9965 14.3375C36.0152 13.7563 35.8644 13.1822 35.5624 12.6852C35.2605 12.1883 34.8204 11.7899 34.296 11.5388L32.9301 10.8839C32.4556 10.6589 32.0488 10.3127 31.7509 9.8803C31.4529 9.44789 31.2743 8.94453 31.233 8.42102C31.1917 7.89751 31.2893 7.37237 31.5158 6.89861C31.7423 6.42485 32.0898 6.01922 32.5232 5.72267C31.004 5.15306 29.3268 5.1711 27.8201 5.77324C26.3135 6.37537 25.0859 7.51825 24.3777 8.97806C23.9284 9.91031 23.639 10.9115 23.5217 11.9397L22.6144 11.5047C22.1992 11.304 21.7484 11.1872 21.2879 11.161C20.8275 11.1348 20.3664 11.1998 19.931 11.3522C19.4957 11.5046 19.0948 11.7414 18.7512 12.049C18.4076 12.3567 18.128 12.7291 17.9286 13.145C17.6434 13.7434 17.536 14.4112 17.6193 15.0689C16.3419 14.9781 15.0727 15.3336 14.0283 16.0746C12.984 16.8156 12.2292 17.8961 11.893 19.1317C11.5567 20.3674 11.6599 21.6814 12.1848 22.8494C12.7096 24.0174 13.6237 24.967 14.7709 25.536L29.2472 32.477C30.4099 33.0074 31.7204 33.1186 32.9558 32.7918C34.1912 32.4649 35.2752 31.7201 36.0234 30.6841C36.7717 29.6481 37.1379 28.3849 37.0597 27.1094C36.9816 25.8339 36.464 24.6248 35.595 23.6878Z" fill="#FECDDC"/>
<path id="Vector_9" d="M14.0231 21.2905C14.509 20.2835 15.2888 19.4475 16.2597 18.8928C17.2305 18.3382 18.3468 18.091 19.461 18.1838C19.3827 17.5589 19.4747 16.9245 19.7272 16.3477C19.9798 15.7708 20.3836 15.273 20.8959 14.9068C21.4082 14.5405 22.01 14.3196 22.6375 14.2673C23.2651 14.215 23.8951 14.3332 24.461 14.6096L25.3682 15.0446C25.4895 14.0209 25.777 13.024 26.2194 12.0929C26.6884 11.1142 27.3944 10.2683 28.2735 9.63186C29.1525 8.99547 30.1767 8.58884 31.2528 8.44892C31.1976 7.91512 31.2912 7.37645 31.5232 6.89255C31.7552 6.40865 32.1166 5.9984 32.5674 5.7072C31.0408 5.12595 29.3516 5.13962 27.8346 5.74548C26.3176 6.35135 25.0838 7.50518 24.3776 8.97816C23.9283 9.91041 23.639 10.9116 23.5216 11.9398L22.6144 11.5048C22.1991 11.3041 21.7484 11.1873 21.2879 11.1611C20.8274 11.1349 20.3663 11.1999 19.931 11.3523C19.4957 11.5047 19.0947 11.7415 18.7511 12.0491C18.4075 12.3568 18.128 12.7292 17.9286 13.1451C17.6433 13.7435 17.5359 14.4113 17.6192 15.069C16.4571 14.9803 15.2966 15.2612 14.3036 15.8716C13.3107 16.4819 12.536 17.3905 12.0904 18.4675C11.6447 19.5445 11.5508 20.7347 11.8222 21.8683C12.0935 23.0018 12.7161 24.0206 13.6011 24.779C13.3586 23.6012 13.5068 22.3765 14.0231 21.2905Z" fill="white"/>
<path id="Vector_10" d="M35.595 23.6878C36.1599 23.3409 36.6134 22.8391 36.9014 22.2419C37.1008 21.8261 37.2161 21.3749 37.2408 20.9144C37.2656 20.4538 37.1991 19.9929 37.0454 19.5581C36.8916 19.1233 36.6536 18.7231 36.3448 18.3804C36.0361 18.0378 35.6628 17.7594 35.2463 17.5613L34.1197 17.0212C34.6592 16.8042 35.1239 16.4349 35.4572 15.9584C35.7904 15.4819 35.9778 14.9187 35.9965 14.3375C36.0152 13.7563 35.8644 13.1822 35.5624 12.6852C35.2605 12.1883 34.8204 11.7899 34.296 11.5388L32.9301 10.8839C32.4556 10.6589 32.0488 10.3127 31.7509 9.8803C31.4529 9.44789 31.2743 8.94453 31.233 8.42102C31.1917 7.89751 31.2893 7.37237 31.5158 6.89861C31.7423 6.42485 32.0898 6.01922 32.5232 5.72267C31.004 5.15306 29.3268 5.1711 27.8201 5.77324C26.3135 6.37537 25.0859 7.51825 24.3777 8.97806C23.9284 9.91031 23.639 10.9115 23.5217 11.9397L22.6144 11.5047C22.1992 11.304 21.7484 11.1872 21.2879 11.161C20.8275 11.1348 20.3664 11.1998 19.931 11.3522C19.4957 11.5046 19.0948 11.7414 18.7512 12.049C18.4076 12.3567 18.128 12.7291 17.9286 13.145C17.6434 13.7434 17.536 14.4112 17.6193 15.0689C16.3419 14.9781 15.0727 15.3336 14.0283 16.0746C12.984 16.8156 12.2292 17.8961 11.893 19.1317C11.5567 20.3674 11.6599 21.6814 12.1848 22.8494C12.7096 24.0174 13.6237 24.967 14.7709 25.536L29.2472 32.477C30.4099 33.0074 31.7204 33.1186 32.9558 32.7918C34.1912 32.4649 35.2752 31.7201 36.0234 30.6841C36.7717 29.6481 37.1379 28.3849 37.0597 27.1094C36.9816 25.8339 36.464 24.6248 35.595 23.6878Z" stroke="#45413C" stroke-linecap="round" stroke-linejoin="round"/>
<path id="Vector_11" d="M32.7313 26.3613L32.0812 27.7172C31.9087 28.0768 31.6005 28.3532 31.2243 28.4856C30.8481 28.618 30.4347 28.5954 30.0751 28.423C29.7155 28.2506 29.4391 27.9424 29.3068 27.5662C29.1744 27.19 29.1969 26.7766 29.3694 26.417L30.8847 23.2565M27.1963 17.037L26.1112 19.3001C25.9186 19.627 25.6104 19.8696 25.2475 19.9801C24.8845 20.0906 24.4934 20.0609 24.1513 19.8969C23.8092 19.7329 23.5412 19.4465 23.4001 19.0943C23.259 18.7422 23.2552 18.3499 23.3894 17.9951L23.8292 17.0779" stroke="#45413C" stroke-linecap="round" stroke-linejoin="round"/>
<path id="Vector_12" d="M18.3715 26.1589L17.2864 28.4221C17.0938 28.7489 16.7855 28.9916 16.4226 29.1021C16.0597 29.2126 15.6685 29.1829 15.3265 29.0189C14.9844 28.8548 14.7163 28.5684 14.5753 28.2163C14.4342 27.8641 14.4304 27.4719 14.5646 27.117L15.6497 24.8539L18.3715 26.1589Z" fill="#FECDDC"/>
<path id="Vector_13" d="M17.9413 27.0562L17.2864 28.4221C17.0938 28.7489 16.7855 28.9916 16.4226 29.1021C16.0597 29.2126 15.6685 29.1829 15.3265 29.0189C14.9844 28.8548 14.7163 28.5684 14.5753 28.2163C14.4342 27.8641 14.4304 27.4719 14.5646 27.117L15.6497 24.8539" stroke="#45413C" stroke-linecap="round" stroke-linejoin="round"/>
</g>
</svg>
