<svg width="90" height="101" viewBox="0 0 90 101" fill="none" xmlns="http://www.w3.org/2000/svg">
<g id="Group 40">
<path id="Vector" opacity="0.15" d="M7.08303 73.9199C6.64497 74.5887 7.90748 76.3323 10.5928 78.767C13.2782 81.2017 17.1664 84.1282 21.4022 86.9026C25.6379 89.6771 29.8742 92.0722 33.1791 93.5611C36.484 95.05 38.5867 95.5107 39.0248 94.8419C39.4629 94.1731 38.2004 92.4296 35.515 89.9948C32.8296 87.5601 28.9414 84.6336 24.7057 81.8592C20.4699 79.0848 16.2336 76.6897 12.9288 75.2007C9.62387 73.7118 7.5211 73.2511 7.08303 73.9199Z" fill="#45413C"/>
<path id="Vector_2" d="M49.8088 69.2085L26.2727 53.7923C25.9302 53.5706 25.6728 53.2396 25.5421 52.8531C25.4115 52.4666 25.4154 52.0473 25.5531 51.6633L28.0205 44.5587C28.1118 44.2969 28.2615 44.0593 28.4582 43.8638C28.6549 43.6684 28.8935 43.5202 29.1559 43.4306C29.4183 43.3409 29.6976 43.3121 29.9728 43.3463C30.2479 43.3805 30.5117 43.4769 30.7442 43.628L57.3399 61.0484C57.5714 61.201 57.7651 61.4044 57.9064 61.643C58.0477 61.8815 58.1329 62.1491 58.1555 62.4255C58.1782 62.7019 58.1377 62.9798 58.0371 63.2382C57.9365 63.4966 57.7785 63.7287 57.575 63.9171L52.048 69.0176C51.751 69.2973 51.3681 69.4684 50.9616 69.503C50.5551 69.5377 50.1488 69.4339 49.8088 69.2085Z" fill="#F3CB60"/>
<path id="Vector_3" d="M27.2359 46.7835L55.8154 65.5032L57.5414 63.895C57.7449 63.7067 57.9029 63.4745 58.0035 63.2161C58.104 62.9577 58.1445 62.6798 58.1219 62.4035C58.0992 62.1271 58.014 61.8595 57.8727 61.6209C57.7314 61.3824 57.5377 61.179 57.3063 61.0263L30.7442 43.628C30.5117 43.4769 30.2479 43.3805 29.9728 43.3463C29.6976 43.3121 29.4183 43.3409 29.1559 43.4306C28.8935 43.5202 28.6549 43.6684 28.4582 43.8638C28.2615 44.0593 28.1118 44.2969 28.0205 44.5587L27.2359 46.7835Z" fill="#F7E5C6"/>
<path id="Vector_4" d="M49.8088 69.2085L26.2727 53.7923C25.9302 53.5706 25.6728 53.2396 25.5421 52.8531C25.4115 52.4666 25.4154 52.0473 25.5531 51.6633L28.0205 44.5587C28.1118 44.2969 28.2615 44.0593 28.4582 43.8638C28.6549 43.6684 28.8935 43.5202 29.1559 43.4306C29.4183 43.3409 29.6976 43.3121 29.9728 43.3463C30.2479 43.3805 30.5117 43.4769 30.7442 43.628L57.3399 61.0484C57.5714 61.201 57.7651 61.4044 57.9064 61.643C58.0477 61.8815 58.1329 62.1491 58.1555 62.4255C58.1782 62.7019 58.1377 62.9798 58.0371 63.2382C57.9365 63.4966 57.7785 63.7287 57.575 63.9171L52.048 69.0176C51.751 69.2973 51.3681 69.4684 50.9616 69.503C50.5551 69.5377 50.1488 69.4339 49.8088 69.2085Z" stroke="#45413C" stroke-linecap="round" stroke-linejoin="round"/>
<path id="Vector_5" d="M26.6684 86.7484L19.4395 82.0134C18.3294 81.2886 17.5205 80.185 17.1636 78.9082C16.8066 77.6313 16.9259 76.2683 17.4991 75.0728L27.3654 54.5082L48.716 68.4929L33.8062 85.754C32.9394 86.7572 31.7375 87.4111 30.4244 87.5941C29.1113 87.777 27.7764 87.4765 26.6684 86.7484Z" fill="#F3CB60"/>
<path id="Vector_6" d="M45.712 71.9787L48.716 68.4929L27.3654 54.5082L25.3702 58.6547L45.712 71.9787Z" fill="#DEBB7E"/>
<path id="Vector_7" d="M26.6684 86.7484L19.4395 82.0134C18.3294 81.2886 17.5205 80.185 17.1636 78.9082C16.8066 77.6313 16.9259 76.2683 17.4991 75.0728L27.3654 54.5082L48.716 68.4929L33.8062 85.754C32.9394 86.7572 31.7375 87.4111 30.4244 87.5941C29.1113 87.777 27.7764 87.4765 26.6684 86.7484Z" stroke="#45413C" stroke-linecap="round" stroke-linejoin="round"/>
<path id="Vector_8" d="M69.7985 46.0255C70.8998 45.5365 71.8375 44.7415 72.5 43.735C72.9594 43.0337 73.2758 42.2487 73.4311 41.4249C73.5865 40.6011 73.5778 39.7548 73.4054 38.9344C73.233 38.114 72.9004 37.3357 72.4267 36.6441C71.953 35.9525 71.3474 35.3612 70.6447 34.9041L68.745 33.6598C69.7692 33.3987 70.6953 32.8453 71.4104 32.067C72.1254 31.2886 72.5986 30.3191 72.7721 29.2765C72.9457 28.2339 72.8121 27.1633 72.3877 26.1953C71.9633 25.2274 71.2664 24.4038 70.382 23.825L68.0788 22.3165C67.2781 21.7969 66.6285 21.0754 66.1958 20.2247C65.763 19.3739 65.5623 18.4241 65.6139 17.471C65.6656 16.5179 65.9677 15.5953 66.4898 14.7962C67.012 13.9972 67.7356 13.3501 68.5878 12.9201C65.9878 11.5283 62.9618 11.1571 60.1025 11.8794C57.2432 12.6016 54.7565 14.3652 53.1293 16.8248C52.0955 18.3962 51.3332 20.1303 50.8744 21.9544L49.3446 20.9524C48.6447 20.4908 47.8607 20.172 47.0374 20.014C46.2142 19.8561 45.3678 19.8621 44.5469 20.0319C43.7259 20.2017 42.9466 20.5318 42.2535 21.0034C41.5604 21.475 40.9672 22.0787 40.5078 22.7799C39.8499 23.7894 39.4957 24.9667 39.4875 26.1717C37.2081 25.7007 34.8359 26.0357 32.776 27.1193C30.7161 28.2029 29.0963 29.9681 28.1932 32.1132C27.2901 34.2584 27.1596 36.6505 27.8242 38.8812C28.4887 41.1118 29.907 43.0426 31.8369 44.3438L56.2471 60.3326C58.2141 61.568 60.5484 62.0837 62.8528 61.7921C65.1572 61.5006 67.2894 60.4196 68.8867 58.7332C70.484 57.0469 71.4478 54.8592 71.614 52.5424C71.7802 50.2256 71.1387 47.9227 69.7985 46.0255Z" fill="#DAEEFF"/>
<path id="Vector_9" d="M31.5113 36.5151C32.6291 34.8178 34.2353 33.4993 36.1178 32.7337C38.0004 31.9681 40.0709 31.7913 42.056 32.2267C42.0652 31.0821 42.3836 29.9613 42.9775 28.9828C43.5714 28.0044 44.4187 27.2046 45.4298 26.6681C46.4409 26.1316 47.5782 25.8783 48.7214 25.9351C49.8646 25.9919 50.9712 26.3566 51.9241 26.9906L53.454 27.9927C53.9188 26.1777 54.6767 24.4507 55.6978 22.8798C56.7782 21.2294 58.2538 19.8752 59.9907 18.9402C61.7275 18.0052 63.6705 17.5191 65.643 17.526C65.672 16.551 65.9703 15.6031 66.5047 14.7871C67.0392 13.9712 67.789 13.319 68.6712 12.9029C66.0608 11.4883 63.0141 11.1064 60.1353 11.8329C57.2565 12.5593 54.7559 14.3411 53.1292 16.8249C52.0954 18.3964 51.3332 20.1304 50.8743 21.9546L49.3445 20.9526C48.6447 20.491 47.8607 20.1721 47.0374 20.0142C46.2141 19.8562 45.3677 19.8623 44.5468 20.0321C43.7259 20.2019 42.9465 20.532 42.2534 21.0036C41.5603 21.4751 40.9671 22.0789 40.5078 22.7801C39.8498 23.7896 39.4956 24.9669 39.4874 26.1718C37.415 25.7324 35.2567 25.9592 33.3209 26.8199C31.3851 27.6805 29.7708 29.131 28.7087 30.964C27.6466 32.7971 27.1911 34.9189 27.4071 37.0263C27.6231 39.1338 28.4997 41.1191 29.9116 42.6985C29.7582 40.5182 30.3198 38.3474 31.5113 36.5151Z" fill="white"/>
<path id="Vector_10" d="M69.7985 46.0255C70.8998 45.5365 71.8375 44.7415 72.5 43.735C72.9594 43.0337 73.2758 42.2487 73.4311 41.4249C73.5865 40.6011 73.5778 39.7548 73.4054 38.9344C73.233 38.114 72.9004 37.3357 72.4267 36.6441C71.953 35.9525 71.3474 35.3612 70.6447 34.9041L68.745 33.6598C69.7692 33.3987 70.6953 32.8453 71.4104 32.067C72.1254 31.2886 72.5986 30.3191 72.7721 29.2765C72.9457 28.2339 72.8121 27.1633 72.3877 26.1953C71.9633 25.2273 71.2664 24.4038 70.382 23.825L68.0788 22.3165C67.2781 21.7969 66.6285 21.0754 66.1958 20.2247C65.763 19.3739 65.5623 18.4241 65.6139 17.471C65.6656 16.5179 65.9677 15.5953 66.4898 14.7962C67.012 13.9972 67.7356 13.3501 68.5878 12.9201C65.9878 11.5283 62.9618 11.1571 60.1025 11.8794C57.2432 12.6016 54.7565 14.3652 53.1293 16.8248C52.0955 18.3962 51.3332 20.1303 50.8744 21.9544L49.3446 20.9524C48.6447 20.4908 47.8607 20.172 47.0374 20.014C46.2142 19.8561 45.3678 19.8621 44.5469 20.0319C43.7259 20.2017 42.9466 20.5318 42.2535 21.0034C41.5604 21.475 40.9672 22.0787 40.5078 22.7799C39.8499 23.7894 39.4957 24.9667 39.4875 26.1717C37.2081 25.7007 34.8359 26.0357 32.776 27.1193C30.7161 28.2029 29.0963 29.9681 28.1932 32.1132C27.2901 34.2584 27.1596 36.6505 27.8242 38.8812C28.4887 41.1118 29.907 43.0426 31.8369 44.3438L56.2471 60.3326C58.2141 61.568 60.5484 62.0837 62.8528 61.7921C65.1572 61.5006 67.2894 60.4196 68.8867 58.7332C70.484 57.0469 71.4478 54.8592 71.614 52.5424C71.7802 50.2256 71.1387 47.9227 69.7985 46.0255Z" stroke="#45413C" stroke-linecap="round" stroke-linejoin="round"/>
<path id="Vector_11" d="M63.9959 50.1529L62.4983 52.4393C62.1011 53.0457 61.4793 53.4694 60.7697 53.6173C60.0601 53.7653 59.3208 53.6252 58.7144 53.2281C58.108 52.8309 57.6842 52.2091 57.5363 51.4995C57.3884 50.7898 57.5284 50.0505 57.9256 49.4441L61.4163 44.1149M56.268 32.022L53.7684 35.8382C53.3427 36.3807 52.729 36.7437 52.0486 36.8554C51.3682 36.9672 50.6706 36.8195 50.0938 36.4417C49.517 36.0639 49.103 35.4834 48.9336 34.815C48.7641 34.1466 48.8517 33.439 49.1789 32.8321L50.1919 31.2854" stroke="#45413C" stroke-linecap="round" stroke-linejoin="round"/>
<path id="Vector_12" d="M38.1738 46.3325L35.6742 50.1487C35.2485 50.6911 34.6348 51.0541 33.9544 51.1658C33.274 51.2776 32.5764 51.13 31.9996 50.7522C31.4228 50.3743 31.0088 49.7938 30.8394 49.1255C30.6699 48.4571 30.7575 47.7494 31.0847 47.1425L33.5843 43.3263L38.1738 46.3325Z" fill="#DAEEFF"/>
<path id="Vector_13" d="M37.1828 47.8455L35.6742 50.1487C35.2485 50.6911 34.6348 51.0541 33.9544 51.1658C33.274 51.2776 32.5764 51.13 31.9996 50.7522C31.4228 50.3743 31.0088 49.7938 30.8394 49.1255C30.6699 48.4571 30.7575 47.7494 31.0847 47.1425L33.5843 43.3263" stroke="#45413C" stroke-linecap="round" stroke-linejoin="round"/>
</g>
</svg>
